<svg width="21" height="21" viewBox="0 0 21 21" fill="none" xmlns="http://www.w3.org/2000/svg">
<g id="phone-call 1" clip-path="url(#clip0_1_527)">
<g id="Group">
<g id="Group_2">
<path id="Vector" d="M19.788 15.0058L16.9941 12.2118C15.9962 11.214 14.2999 11.6131 13.9007 12.9103C13.6014 13.8084 12.6035 14.3073 11.7055 14.1077C9.70979 13.6088 7.01561 11.0144 6.51669 8.91892C6.21733 8.02082 6.81604 7.02297 7.7141 6.72366C9.0113 6.32452 9.41044 4.62818 8.41259 3.63034L5.61862 0.836369C4.82035 0.137877 3.62293 0.137877 2.92444 0.836369L1.02854 2.73228C-0.867371 4.72797 1.2281 10.0165 5.91798 14.7064C10.6079 19.3963 15.8964 21.5916 17.8921 19.5959L19.788 17.7C20.4866 16.9017 20.4866 15.7043 19.788 15.0058Z" fill="white"/>
</g>
</g>
</g>
<defs>
<clipPath id="clip0_1_527">
<rect width="20.0208" height="20.0208" fill="white" transform="translate(0.3125 0.3125)"/>
</clipPath>
</defs>
</svg>
